<?xml version="1.0" standalone="no"?>
<!DOCTYPE svg PUBLIC "-//W3C//DTD SVG 20010904//EN"
 "http://www.w3.org/TR/2001/REC-SVG-20010904/DTD/svg10.dtd">
<svg version="1.0" xmlns="http://www.w3.org/2000/svg"
 width="437.000000pt" height="437.000000pt" viewBox="0 0 437.000000 437.000000"
 preserveAspectRatio="xMidYMid meet">
<metadata>
Created by potrace 1.11, written by Peter Selinger 2001-2013
</metadata>
<g transform="translate(0.000000,437.000000) scale(0.100000,-0.100000)"
fill="#000000" stroke="none">
<path d="M1739 4348 c-49 -30 -81 -71 -113 -141 -50 -109 -88 -288 -101 -477
-6 -80 -6 -477 0 -700 l3 -135 -44 -90 c-48 -99 -79 -221 -88 -349 -5 -73 -9
-83 -39 -115 -50 -53 -58 -97 -52 -263 3 -79 8 -197 10 -263 4 -99 21 -220 50
-365 3 -14 12 -61 19 -105 27 -150 44 -220 101 -415 32 -107 61 -209 65 -226
4 -17 36 -84 70 -149 56 -105 73 -128 164 -215 228 -221 351 -338 353 -337 1
1 5 29 8 62 4 33 9 69 11 80 4 21 11 71 19 138 3 23 8 53 10 67 3 14 7 48 10
75 18 168 48 362 57 372 22 27 38 14 39 -29 1 -24 1 -46 1 -49 -1 -6 22 -10
148 -25 25 -3 72 -9 105 -14 55 -7 63 -6 93 17 18 14 36 22 39 19 3 -3 7 -32
8 -63 2 -32 6 -141 10 -243 8 -218 13 -311 17 -315 2 -2 42 72 90 165 77 147
92 184 119 296 17 71 33 140 35 154 3 14 10 43 16 65 13 50 15 94 23 430 13
575 14 611 29 646 8 19 17 77 20 129 4 52 9 120 11 150 3 30 7 89 10 132 l6
76 -41 23 c-32 18 -42 31 -51 63 -26 103 -124 378 -156 439 -58 110 -152 179
-276 202 -33 7 -37 10 -37 39 0 26 10 39 58 78 31 26 69 57 83 70 15 13 90 77
168 142 77 66 137 122 133 125 -5 3 -75 105 -157 226 -159 236 -244 357 -255
365 -3 3 -13 15 -22 28 -8 13 -49 59 -89 104 -41 44 -76 84 -79 89 -3 4 -59
10 -125 14 -66 3 -145 8 -175 10 -30 2 -104 7 -165 10 -102 5 -113 4 -146 -17z
m1086 -2940 c-20 -36 -39 -53 -85 -77 -33 -17 -61 -31 -64 -31 -2 0 -7 29 -11
63 -10 91 16 139 110 206 l70 49 3 -82 c2 -73 0 -87 -23 -128z m-645 116 c52
-14 100 -31 106 -37 6 -7 19 -34 27 -60 16 -47 16 -49 -16 -143 -17 -52 -36
-93 -42 -91 -5 3 -87 23 -181 46 -171 42 -172 43 -178 73 -7 36 -10 31 84 146
41 50 82 92 90 92 8 0 58 -12 110 -26z"/>
</g>
</svg>
